<?xml version="1.0" encoding="UTF-8" standalone="no"?>
<svg
   xmlns:dc="http://purl.org/dc/elements/1.1/"
   xmlns:cc="http://creativecommons.org/ns#"
   xmlns:rdf="http://www.w3.org/1999/02/22-rdf-syntax-ns#"
   xmlns:svg="http://www.w3.org/2000/svg"
   xmlns="http://www.w3.org/2000/svg"
   xmlns:sodipodi="http://sodipodi.sourceforge.net/DTD/sodipodi-0.dtd"
   xmlns:inkscape="http://www.inkscape.org/namespaces/inkscape"
   aria-hidden="true"
   data-prefix="fas"
   data-icon="camera"
   class="svg-inline--fa fa-camera fa-w-16"
   role="img"
   viewBox="0 0 512 512"
   version="1.1"
   id="svg4"
   sodipodi:docname="camera-solid.svg"
   inkscape:version="0.92.2 (5c3e80d, 2017-08-06)">
  <metadata
     id="metadata10">
    <rdf:RDF>
      <cc:Work
         rdf:about="">
        <dc:format>image/svg+xml</dc:format>
        <dc:type
           rdf:resource="http://purl.org/dc/dcmitype/StillImage" />
      </cc:Work>
    </rdf:RDF>
  </metadata>
  <defs
     id="defs8" />
  <sodipodi:namedview
     pagecolor="#ffffff"
     bordercolor="#666666"
     borderopacity="1"
     objecttolerance="10"
     gridtolerance="10"
     guidetolerance="10"
     inkscape:pageopacity="0"
     inkscape:pageshadow="2"
     inkscape:window-width="1366"
     inkscape:window-height="705"
     id="namedview6"
     showgrid="false"
     inkscape:zoom="0.921875"
     inkscape:cx="334.75103"
     inkscape:cy="213.69775"
     inkscape:window-x="-8"
     inkscape:window-y="-8"
     inkscape:window-maximized="1"
     inkscape:current-layer="svg4" />
  <path
     fill="currentColor"
     d="M512 144v288c0 26.5-21.5 48-48 48H48c-26.5 0-48-21.5-48-48V144c0-26.5 21.5-48 48-48h88l12.3-32.9c7-18.7 24.9-31.1 44.9-31.1h125.5c20 0 37.9 12.4 44.9 31.1L376 96h88c26.5 0 48 21.5 48 48zM376 288c0-66.2-53.8-120-120-120s-120 53.8-120 120 53.8 120 120 120 120-53.8 120-120zm-32 0c0 48.5-39.5 88-88 88s-88-39.5-88-88 39.5-88 88-88 88 39.5 88 88z"
     id="path2" />
  <path
     style="opacity:1;fill:#1a1a1a;fill-opacity:1;fill-rule:evenodd;stroke:#ffffff;stroke-width:36.83284378;stroke-miterlimit:4;stroke-dasharray:none;stroke-opacity:1;paint-order:markers stroke fill"
     d="M 26.909759,473.97274 C 16.453609,468.79705 7.8625293,458.73694 3.5292266,446.59423 -0.30509451,435.84976 -0.92222633,144.05047 2.8604728,130.38644 4.3464724,125.01865 9.1002344,117.87109 15.32295,111.64837 21.545665,105.42566 28.693226,100.6719 34.061017,99.185896 39.16605,97.772637 62.057899,96.778539 89.660908,96.771421 L 136.58283,96.759322 141.54474,83.2 c 10.9372,-29.887909 18.00408,-39.753018 32.95078,-45.99815 11.30493,-4.723499 151.89923,-5.004527 163.09652,-0.326006 12.22595,5.108329 20.99334,16.546572 29.47226,38.450499 l 7.87671,20.348233 50.84813,1.119076 c 30.7589,0.676947 53.03929,2.092609 56.39417,3.583198 9.55815,4.24673 19.86361,14.29809 24.00319,23.41136 3.74394,8.24225 3.98546,18.10207 4.03026,164.51517 0.0456,149.04943 -0.13038,156.09359 -4.09265,163.79661 -5.32613,10.35455 -14.36479,18.87184 -24.53578,23.12051 -7.11116,2.97051 -33.9468,3.36914 -226.71187,3.36762 -218.615205,-0.002 -218.647262,-0.002 -227.966701,-4.61538 z M 280.92065,405.97077 c 42.19413,-8.94085 77.61245,-41.59792 90.65155,-83.58433 5.39032,-17.35697 5.81144,-47.44517 0.92366,-65.99279 -5.16003,-19.5807 -15.88016,-37.75762 -31.45179,-53.32924 -23.79512,-23.79512 -50.76229,-35.01765 -84.40149,-35.12412 -34.24481,-0.10838 -61.48514,11.27354 -86.08345,35.96858 -17.62914,17.69847 -27.42473,35.5143 -32.33882,58.81655 -4.31802,20.47569 -4.08233,34.12689 0.92739,53.71468 7.11688,27.82677 21.4552,50.00132 42.98256,66.47353 29.44692,22.53208 63.62401,30.50882 98.79039,23.05714 z"
     id="path4506"
     inkscape:connector-curvature="0" />
  <path
     style="opacity:1;fill:#dcbd1b;fill-opacity:1;fill-rule:evenodd;stroke:#ffffff;stroke-width:36.83284378;stroke-miterlimit:4;stroke-dasharray:none;stroke-opacity:1;paint-order:markers stroke fill"
     d="M 70.765531,476.6966 C 29.977259,475.35562 29.254311,475.24853 21.615249,469.41594 17.351042,466.16012 11.579677,459.81436 8.789993,455.31425 3.8739352,447.38399 3.6638471,445.06247 1.9633694,379.87797 0.99841041,342.88814 0.80445722,272.13633 1.5323624,222.65172 2.6396069,147.3788 3.411671,131.50835 6.2581057,125.50994 10.830537,115.87425 27.524569,101.49735 35.934377,99.952733 39.676911,99.265347 64.075815,98.021558 90.154166,97.188758 l 47.415184,-1.514182 7.49767,-18.748147 c 8.71302,-21.787188 19.15154,-35.112584 30.58822,-39.047701 5.96782,-2.053402 27.52203,-2.797022 81.8634,-2.824287 67.96909,-0.0341 74.41799,0.284852 82.10558,4.060844 10.00086,4.912229 20.14243,19.70787 28.50263,41.582758 l 5.8842,15.396347 46.97414,1.489361 c 25.83578,0.819145 50.6404,2.070642 55.12142,2.781099 10.5498,1.67267 26.42681,15.5193 30.12907,26.27612 2.15646,6.26547 2.79951,42.00957 2.85811,158.86411 0.0417,82.92882 -0.70946,154.49893 -1.66897,159.04469 -2.11968,10.04212 -14.95042,24.84493 -25.28436,29.17053 -6.31942,2.64517 -36.32186,3.23987 -188.74576,3.74122 -99.6776,0.32783 -199.86072,-0.0174 -222.629169,-0.76492 z M 280.7339,406.78623 c 40.04037,-8.28865 77.09073,-41.70619 90.49224,-81.61948 6.6752,-19.88048 6.37288,-56.96095 -0.62605,-76.78757 -12.73615,-36.07907 -44.5684,-66.52329 -80.34195,-76.83864 -18.47118,-5.3262 -52.27585,-4.84011 -71.03087,1.02136 -37.93257,11.85501 -71.82282,48.42691 -81.01858,87.42938 -17.51767,74.29866 39.81897,148.34122 115.40656,149.03205 8.59212,0.0785 20.79551,-0.92818 27.11865,-2.2371 z"
     id="path4516"
     inkscape:connector-curvature="0" />
  <path
     style="opacity:1;fill:#dcbd1b;fill-opacity:1;fill-rule:evenodd;stroke:#ffffff;stroke-width:36.83284378;stroke-miterlimit:4;stroke-dasharray:none;stroke-opacity:1;paint-order:markers stroke fill"
     d="m 231.48475,371.53447 c -24.22438,-8.02233 -43.21138,-24.5474 -53.97748,-46.97854 -6.25562,-13.03356 -6.76829,-15.83059 -6.76829,-36.92697 0,-21.40185 0.44297,-23.72508 7.10316,-37.25385 26.33526,-53.49451 97.32559,-65.66484 139.13723,-23.8532 43.11151,43.1115 30.31615,113.91378 -25.4166,140.64111 -10.07366,4.83095 -15.9471,6.04412 -31.87463,6.58377 -12.14733,0.41157 -22.80458,-0.4244 -28.20339,-2.21232 z"
     id="path4518"
     inkscape:connector-curvature="0" />
  <path
     style="opacity:1;fill:#dcbd1b;fill-opacity:0;fill-rule:evenodd;stroke:#ffffff;stroke-width:21.63301125;stroke-miterlimit:4;stroke-dasharray:none;stroke-opacity:1;paint-order:markers stroke fill"
     d="m 236.42412,406.85512 c -24.18716,-3.6183 -50.84718,-18.28175 -68.07348,-37.44153 -51.74482,-57.5527 -40.00665,-141.41062 25.74267,-183.90646 19.73248,-12.75372 32.69957,-16.01773 63.42533,-15.96508 29.34972,0.0503 43.00706,3.73057 62.83036,16.93108 41.63329,27.72399 61.22058,72.602 53.45723,122.48012 -6.29907,40.47042 -41.17458,80.60173 -81.16256,93.39394 -16.18883,5.17884 -39.33057,7.03443 -56.21955,4.50793 z m 57.29002,-40.57933 c 17.67207,-8.69993 32.32223,-24.02072 41.50489,-43.40484 6.26642,-13.22809 6.90978,-16.51568 6.90978,-35.30889 0,-19.55837 -0.45524,-21.6438 -8.10244,-37.11687 -9.75008,-19.72795 -22.3802,-32.1051 -42.24908,-41.40287 -42.42702,-19.85399 -91.82985,-1.79166 -114.88968,42.00519 -5.71842,10.86084 -6.14863,13.42355 -6.14863,36.62707 0,24.27997 0.19866,25.31553 7.40679,38.60918 8.50476,15.68497 20.64968,28.63843 34.41353,36.70458 16.84207,9.87011 24.02078,11.56138 46.21518,10.88806 18.30143,-0.55522 22.47078,-1.4622 34.93966,-7.60061 z"
     id="path4520"
     inkscape:connector-curvature="0" />
  <path
     style="opacity:1;fill:#000000;fill-opacity:1;fill-rule:evenodd;stroke:#ffffff;stroke-width:1.15959322;stroke-miterlimit:4;stroke-dasharray:none;stroke-opacity:1;paint-order:markers stroke fill"
     d="M 52.300716,475.69184 C 42.704906,475.23573 32.905674,474.338 30.524645,473.69685 22.455631,471.52409 10.910257,460.20215 6.8470147,450.47744 3.1564396,441.64465 2.517404,417.16481 2.5234192,284.8514 2.5294844,151.43891 3.0505862,132.75452 6.9796793,125.06975 10.530965,118.12392 22.460298,106.6652 30.492753,102.48427 c 4.970075,-2.586943 17.873901,-3.557121 70.712517,-5.316537 19.68814,-0.655574 36.12545,-1.528836 36.52736,-1.940584 0.40192,-0.411748 2.76245,-5.874056 5.24562,-12.138463 9.69606,-24.460707 20.41301,-39.817481 30.65648,-43.928993 7.32472,-2.939983 37.65306,-4.007881 100.04512,-3.522711 61.46666,0.477975 62.25841,0.554645 70.47946,6.825147 7.92146,6.041996 16.69068,20.707656 24.94094,41.711303 l 4.47394,11.389831 5.91724,0.711364 c 3.25447,0.391251 23.49011,1.280886 44.96808,1.976969 45.97645,1.490054 52.7776,2.125694 59.69183,5.578834 6.64465,3.31849 16.86674,13.17552 19.96604,19.25299 4.00946,7.86218 4.6326,35.1237 4.23082,185.09001 l -0.36327,135.59322 -3.08808,6.28891 c -4.17048,8.49322 -13.57974,18.44103 -20.7701,21.95895 -5.70664,2.792 -6.34764,2.8549 -38.70109,3.79767 -39.62399,1.15462 -368.418507,1.05398 -393.124944,-0.12034 z M 283.02868,416.07945 c 5.85863,-1.19391 14.32416,-3.58475 18.81227,-5.31297 39.20989,-15.09838 73.08147,-54.20747 81.86469,-94.52332 3.99608,-18.34236 3.36991,-43.15634 -1.57532,-62.42662 -3.34892,-13.04989 -13.30239,-33.74565 -21.27753,-44.24129 -16.5162,-21.73611 -42.04772,-40.28469 -64.29191,-46.70791 -19.24393,-5.55686 -57.59405,-5.86311 -78.08062,-0.62353 -16.54205,4.23075 -35.84386,15.85456 -51.86302,31.23262 -20.8388,20.00479 -33.60362,42.74099 -39.42514,70.22243 -2.48767,11.74343 -2.52997,34.85448 -0.0869,47.48461 9.0199,46.63124 42.68794,85.66996 87.45603,101.40693 5.07118,1.78263 12.63728,3.79378 16.81356,4.46923 4.17627,0.67543 8.81356,1.4375 10.30508,1.69347 5.92041,1.01604 31.29424,-0.62465 41.34883,-2.67365 z"
     id="path4526"
     inkscape:connector-curvature="0" />
  <path
     style="opacity:1;fill:#dcbd1b;fill-opacity:1;fill-rule:evenodd;stroke:#ffffff;stroke-width:1.15959322;stroke-miterlimit:4;stroke-dasharray:none;stroke-opacity:1;paint-order:markers stroke fill"
     d="m 237.78204,361.83508 c -19.20564,-3.80771 -41.16243,-22.86332 -52.16773,-45.27474 -2.9656,-6.03922 -3.06329,-6.79965 -3.40848,-26.53157 -0.4227,-24.16266 0.36822,-27.88033 8.62387,-40.53556 22.28063,-34.15438 61.90535,-46.33746 96.95184,-29.80897 17.34522,8.18028 27.37216,18.25327 36.66981,36.8382 l 5.63528,11.26426 0.34668,17.94425 c 0.31425,16.26566 0.12397,18.56055 -2.0341,24.53235 -9.98522,27.63094 -34.00483,48.79544 -58.58504,51.62126 -10.68704,1.22863 -25.70252,1.20543 -32.03213,-0.0495 z"
     id="path4528"
     inkscape:connector-curvature="0" />
  <path
     style="opacity:1;fill:#ffd600;fill-opacity:1;fill-rule:evenodd;stroke:#ffffff;stroke-width:1.15959322;stroke-miterlimit:4;stroke-dasharray:none;stroke-opacity:1;paint-order:markers stroke fill"
     d="m 231.51086,416.6665 c -55.07481,-11.51139 -98.06098,-58.09791 -104.93399,-113.72284 -5.65405,-45.75948 14.55821,-90.67 54.35722,-120.77874 10.63141,-8.04287 27.98906,-17.00598 37.42372,-19.32478 20.34495,-5.00027 55.58726,-5.00027 75.93221,0 9.25406,2.27442 27.00537,11.30081 37.44138,19.03864 17.98966,13.33852 30.01208,27.49658 39.5417,46.56584 9.52438,19.05876 13.14426,32.45783 14.31521,52.98817 2.19067,38.40942 -12.12411,73.03575 -41.91267,101.38343 -19.07751,18.15473 -39.3592,28.79114 -63.48732,33.29494 -10.80221,2.01635 -40.08886,2.35048 -48.67746,0.55534 z m 56.37555,-59.58709 c 9.10749,-4.51984 12.24334,-6.83133 20.60243,-15.18644 8.79009,-8.78589 10.55544,-11.253 16.27119,-22.73921 l 6.41134,-12.88408 v -18.57355 -18.57355 l -4.53714,-9.4435 c -11.13813,-23.18267 -24.66483,-35.91966 -46.60397,-43.88313 -19.0973,-6.93195 -43.68437,-4.42134 -62.03575,6.33453 -9.33594,5.47186 -24.76513,21.52647 -30.41058,31.64327 -5.70146,10.21719 -6.47213,14.98559 -6.24996,38.67087 l 0.1577,16.81356 4.14317,8.11411 c 8.73498,17.10692 18.80097,28.23453 33.37081,36.89031 13.31359,7.90945 17.07157,8.71913 39.05025,8.41353 l 19.08791,-0.26541 z"
     id="path4530"
     inkscape:connector-curvature="0" />
  <path
     style="opacity:1;fill:#000000;fill-opacity:1;fill-rule:evenodd;stroke:#ffffff;stroke-width:1.15959322;stroke-miterlimit:4;stroke-dasharray:none;stroke-opacity:1;paint-order:markers stroke fill"
     d="m 234.08663,360.12694 c -8.31872,-2.22902 -19.40912,-9.09615 -28.42298,-17.59937 -8.29259,-7.82281 -13.79565,-15.28237 -19.24046,-26.081 l -3.48577,-6.91331 -0.18811,-20.20534 c -0.2226,-23.91042 0.74367,-28.26044 8.83754,-39.78529 7.50739,-10.68975 22.1203,-24.1847 30.8326,-28.47376 20.59841,-10.14056 44.66352,-10.47871 65.17946,-0.91585 16.32265,7.60828 27.15676,18.66035 37.13686,37.88397 l 4.94476,9.52457 0.20304,19.33145 0.20306,19.33145 -5.60394,11.27957 c -10.72891,21.59506 -28.83444,37.78043 -47.70518,42.64587 -8.74291,2.25418 -34.24378,2.24046 -42.69088,-0.023 z"
     id="path4532"
     inkscape:connector-curvature="0" />
</svg>
