<svg version="1.1"
      xmlns="http://www.w3.org/2000/svg"
      xmlns:xlink="http://www.w3.org/1999/xlink"  id="snapshot-98982" width="236" height="372" viewBox="0 0 236 372"><desc>This image was made on Patterninja.com</desc><defs>
<!-- image 10502 -->
<g id="transformed-10502" data-image="10502" transform="translate(84.68508047637161, 3.6850804763716027) rotate(45, 57.31491952362839, 57.3149195236284)"><g><svg version="1.1" width="114.62983904725678px" height="114.6298390472568px" viewBox="0 0 114.62983904725678 114.6298390472568"><g id="original-10502"><svg xmlns="http://www.w3.org/2000/svg" viewBox="0 0 161 161" xmlns:xlink="http://www.w3.org/1999/xlink" version="1.1" preserveAspectRatio="xMidYMid meet">
  <circle cx="80.578" cy="80.5" r="80" fill-rule="evenodd" fill="rgba(87, 87, 87, 0.5)" stroke="none"/>
  <circle cx="80.578" cy="80.5" r="55.885" fill-rule="evenodd" fill="rgba(133, 127, 127, 0.5)" stroke="none"/>
  <path fill-rule="evenodd" d="M43.185 31.961h-6.938a2 2 0 0 0-2 2v2.308a2 2 0 0 0 2 2h6.938a2 2 0 0 0 2-2v-2.308a2 2 0 0 0-2-2z" fill="rgba(254, 61, 80, 0.7)" stroke="none"/>
  <path fill-rule="evenodd" d="M132.997 122.263H28.16c-6.628 0-12-5.372-12-12V47.601c0-6.628 5.372-12 12-12h104.838c6.628 0 12 5.372 12 12v62.662c0 6.628-5.372 12-12 12z" fill="rgba(243, 239, 239, 0.7)" stroke="none"/>
  <path fill-rule="evenodd" d="M132.997 115.263H28.16c-6.628 0-12-5.372-12-12v5c0 6.628 5.372 12 12 12h104.838c6.628 0 12-5.372 12-12v-5c0 6.628-5.372 12-12 12z" fill="rgba(248, 231, 28, 0.2)" stroke="none"/>
  <circle cx="80.578" cy="82.932" r="29.393" fill-rule="evenodd" fill="rgba(81, 228, 194, 0.2)" stroke="none"/>
  <circle cx="80.578" cy="78.932" r="29.393" fill-rule="evenodd" fill="rgba(81, 228, 194, 0.7)" stroke="none"/>
  <circle cx="80.578" cy="78.932" r="22.351" fill-rule="evenodd" fill="rgba(83, 71, 65, 0.1)" stroke="none"/>
  <circle cx="80.578" cy="78.932" r="20.638" fill-rule="evenodd" fill="rgba(248, 231, 28, 0.7)" stroke="none"/>
  <circle cx="80.578" cy="78.932" r="16.627" fill-rule="evenodd" fill="rgba(83, 71, 65, 0.7)" stroke="none"/>
  <circle cx="80.578" cy="78.932" r="11.537" fill-rule="evenodd" fill="rgba(223, 113, 245, 0.2)" stroke="none"/>
  <path fill-rule="evenodd" d="M80.578 86.424c-7.346 0-13.492-5.066-15.18-11.89a15.64 15.64 0 0 0-.476 3.767c0 8.646 7.01 15.656 15.656 15.656 8.647 0 15.656-7.01 15.656-15.656a15.65 15.65 0 0 0-.475-3.767c-1.689 6.824-7.835 11.89-15.181 11.89z" fill="rgba(83, 71, 65, 0.2)" stroke="none"/>
  <ellipse cx="80.578" cy="67.678" fill-rule="evenodd" rx="6.155" ry="3.768" fill="rgba(255, 255, 255, 0.5)" stroke="none"/>
  <path fill-rule="evenodd" d="M131.4 56.294h-13.593a2 2 0 0 1-2-2V49.54a2 2 0 0 1 2-2H131.4a2 2 0 0 1 2 2v4.755a2 2 0 0 1-2 2z" fill="rgba(254, 61, 80, 0.7)" stroke="none"/>
  <path fill-rule="evenodd" d="M117.808 49.54H131.4v4.754h-13.592z" fill="rgba(83, 71, 65, 0.7)" stroke="none"/>
</svg>
</g></svg></g></g>
<!-- /image 10502 -->

<!-- image 11659 -->
<g id="transformed-11659" data-image="11659" transform="translate(86.68508047637161, 192.6850804763716) rotate(45, 57.31491952362839, 57.3149195236284)"><g><svg version="1.1" width="114.62983904725678px" height="114.6298390472568px" viewBox="0 0 114.62983904725678 114.6298390472568"><g id="original-11659"><svg xmlns="http://www.w3.org/2000/svg" viewBox="0 0 161 161" xmlns:xlink="http://www.w3.org/1999/xlink" version="1.1" preserveAspectRatio="xMidYMid meet">
  <circle cx="80.578" cy="80.5" r="80" fill-rule="evenodd" fill="rgba(87, 87, 87, 0.5)" stroke="none"/>
  <circle cx="80.578" cy="80.5" r="55.885" fill-rule="evenodd" fill="rgba(133, 127, 127, 0.5)" stroke="none"/>
  <path fill-rule="evenodd" d="M43.185 31.961h-6.938a2 2 0 0 0-2 2v2.308a2 2 0 0 0 2 2h6.938a2 2 0 0 0 2-2v-2.308a2 2 0 0 0-2-2z" fill="rgba(254, 61, 80, 0.7)" stroke="none"/>
  <path fill-rule="evenodd" d="M132.997 122.263H28.16c-6.628 0-12-5.372-12-12V47.601c0-6.628 5.372-12 12-12h104.838c6.628 0 12 5.372 12 12v62.662c0 6.628-5.372 12-12 12z" fill="rgba(243, 239, 239, 0.7)" stroke="none"/>
  <path fill-rule="evenodd" d="M132.997 115.263H28.16c-6.628 0-12-5.372-12-12v5c0 6.628 5.372 12 12 12h104.838c6.628 0 12-5.372 12-12v-5c0 6.628-5.372 12-12 12z" fill="rgba(248, 231, 28, 0.2)" stroke="none"/>
  <circle cx="80.578" cy="82.932" r="29.393" fill-rule="evenodd" fill="rgba(81, 228, 194, 0.2)" stroke="none"/>
  <circle cx="80.578" cy="78.932" r="29.393" fill-rule="evenodd" fill="rgba(81, 228, 194, 0.7)" stroke="none"/>
  <circle cx="80.578" cy="78.932" r="22.351" fill-rule="evenodd" fill="rgba(83, 71, 65, 0.1)" stroke="none"/>
  <circle cx="80.578" cy="78.932" r="20.638" fill-rule="evenodd" fill="rgba(248, 231, 28, 0.7)" stroke="none"/>
  <circle cx="80.578" cy="78.932" r="16.627" fill-rule="evenodd" fill="rgba(83, 71, 65, 0.7)" stroke="none"/>
  <circle cx="80.578" cy="78.932" r="11.537" fill-rule="evenodd" fill="rgba(223, 113, 245, 0.2)" stroke="none"/>
  <path fill-rule="evenodd" d="M80.578 86.424c-7.346 0-13.492-5.066-15.18-11.89a15.64 15.64 0 0 0-.476 3.767c0 8.646 7.01 15.656 15.656 15.656 8.647 0 15.656-7.01 15.656-15.656a15.65 15.65 0 0 0-.475-3.767c-1.689 6.824-7.835 11.89-15.181 11.89z" fill="rgba(83, 71, 65, 0.2)" stroke="none"/>
  <ellipse cx="80.578" cy="67.678" fill-rule="evenodd" rx="6.155" ry="3.768" fill="rgba(255, 255, 255, 0.5)" stroke="none"/>
  <path fill-rule="evenodd" d="M131.4 56.294h-13.593a2 2 0 0 1-2-2V49.54a2 2 0 0 1 2-2H131.4a2 2 0 0 1 2 2v4.755a2 2 0 0 1-2 2z" fill="rgba(254, 61, 80, 0.7)" stroke="none"/>
  <path fill-rule="evenodd" d="M117.808 49.54H131.4v4.754h-13.592z" fill="rgba(83, 71, 65, 0.7)" stroke="none"/>
</svg>
</g></svg></g></g>
<!-- /image 11659 -->

<!-- image 07108 -->
<g id="transformed-07108" data-image="07108" transform="translate(1.5, 99.5) rotate(325, 57.5, 57.5)"><g><svg version="1.1" width="115px" height="115px" viewBox="0 0 115 115"><g id="original-07108"><svg xmlns="http://www.w3.org/2000/svg" viewBox="0 0 161 161" xmlns:xlink="http://www.w3.org/1999/xlink" version="1.1" preserveAspectRatio="xMidYMid meet">
  <circle cx="80.739" cy="80.5" r="80" fill-rule="evenodd" fill="rgba(133, 131, 131, 0.5)" stroke="none"/>
  <circle cx="80.739" cy="80.5" r="55.885" fill-rule="evenodd" fill="rgba(70, 70, 70, 0.5)" stroke="none"/>
  <path fill-rule="evenodd" d="M135.065 128.166l-114.9-11.273a2 2 0 0 1-1.794-2.186l7.856-80.078a2 2 0 0 1 2.186-1.795l114.9 11.273a2 2 0 0 1 1.795 2.186l-7.857 80.078a2 2 0 0 1-2.186 1.795z" fill="rgba(228, 239, 236, 1)" stroke="none"/>
  <path fill-rule="evenodd" d="M138.465 122.731H23.014a2 2 0 0 1-2-2V40.269a2 2 0 0 1 2-2h115.45a2 2 0 0 1 2 2v80.462a2 2 0 0 1-2 2z" fill="rgba(255, 255, 255, 0.5)" stroke="none"/>
  <path fill-rule="evenodd" d="M80.739 90.5l19.168-19.167 35.541 35.541v10.857H80.739z" fill="rgba(62, 204, 166, 0.5)" stroke="none"/>
  <circle cx="116.569" cy="85.638" r="14.305" fill-rule="evenodd" fill="rgba(248, 231, 28, 0.2)" stroke="none"/>
  <circle cx="116.569" cy="85.638" r="8.973" fill-rule="evenodd" fill="rgba(248, 231, 28, 0.5)" stroke="none"/>
  <path fill-rule="evenodd" d="M26.014 95.559c2.866-2.283 35.729-35.73 35.729-35.73l58.046 58.047H26.014V95.559z" fill="rgba(81, 228, 194, 0.5)" stroke="none"/>
  <ellipse cx="45.327" cy="89.75" fill-rule="evenodd" rx="6.471" ry="3.819" fill="rgba(31, 33, 30, 0.1)" stroke="none"/>
  <path fill-rule="evenodd" d="M44.613 80.216h1.427v9.534h-1.427z" fill="rgba(83, 71, 65, 1)" stroke="none"/>
  <circle cx="45.327" cy="76.462" r="6.471" fill-rule="evenodd" fill="rgba(62, 204, 166, 0.5)" stroke="none"/>
</svg>
</g></svg></g></g>
<!-- /image 07108 -->

<!-- image 03610 -->
<g id="transformed-03610" data-image="03610" transform="translate(0.5, 282.5) rotate(325, 57.5, 57.5)"><g><svg version="1.1" width="115px" height="115px" viewBox="0 0 115 115"><g id="original-03610"><svg xmlns="http://www.w3.org/2000/svg" viewBox="0 0 161 161" xmlns:xlink="http://www.w3.org/1999/xlink" version="1.1" preserveAspectRatio="xMidYMid meet">
  <circle cx="80.739" cy="80.5" r="80" fill-rule="evenodd" fill="rgba(133, 131, 131, 0.5)" stroke="none"/>
  <circle cx="80.739" cy="80.5" r="55.885" fill-rule="evenodd" fill="rgba(70, 70, 70, 0.5)" stroke="none"/>
  <path fill-rule="evenodd" d="M135.065 128.166l-114.9-11.273a2 2 0 0 1-1.794-2.186l7.856-80.078a2 2 0 0 1 2.186-1.795l114.9 11.273a2 2 0 0 1 1.795 2.186l-7.857 80.078a2 2 0 0 1-2.186 1.795z" fill="rgba(228, 239, 236, 1)" stroke="none"/>
  <path fill-rule="evenodd" d="M138.465 122.731H23.014a2 2 0 0 1-2-2V40.269a2 2 0 0 1 2-2h115.45a2 2 0 0 1 2 2v80.462a2 2 0 0 1-2 2z" fill="rgba(255, 255, 255, 0.5)" stroke="none"/>
  <path fill-rule="evenodd" d="M80.739 90.5l19.168-19.167 35.541 35.541v10.857H80.739z" fill="rgba(62, 204, 166, 0.5)" stroke="none"/>
  <circle cx="116.569" cy="85.638" r="14.305" fill-rule="evenodd" fill="rgba(248, 231, 28, 0.2)" stroke="none"/>
  <circle cx="116.569" cy="85.638" r="8.973" fill-rule="evenodd" fill="rgba(248, 231, 28, 0.5)" stroke="none"/>
  <path fill-rule="evenodd" d="M26.014 95.559c2.866-2.283 35.729-35.73 35.729-35.73l58.046 58.047H26.014V95.559z" fill="rgba(81, 228, 194, 0.5)" stroke="none"/>
  <ellipse cx="45.327" cy="89.75" fill-rule="evenodd" rx="6.471" ry="3.819" fill="rgba(31, 33, 30, 0.1)" stroke="none"/>
  <path fill-rule="evenodd" d="M44.613 80.216h1.427v9.534h-1.427z" fill="rgba(83, 71, 65, 1)" stroke="none"/>
  <circle cx="45.327" cy="76.462" r="6.471" fill-rule="evenodd" fill="rgba(62, 204, 166, 0.5)" stroke="none"/>
</svg>
</g></svg></g></g>
<!-- /image 03610 -->
</defs><rect x="0" y="0" width="236" height="372" fill="rgba(250, 246, 233, 1)"></rect><use xlink:href="#transformed-10502" transform="translate(-236, -372)"></use><use xlink:href="#transformed-10502" transform="translate(0, -372)"></use><use xlink:href="#transformed-10502" transform="translate(236, -372)"></use><use xlink:href="#transformed-10502" transform="translate(-236, 0)"></use><use xlink:href="#transformed-10502" transform="translate(0, 0)"></use><use xlink:href="#transformed-10502" transform="translate(236, 0)"></use><use xlink:href="#transformed-10502" transform="translate(-236, 372)"></use><use xlink:href="#transformed-10502" transform="translate(0, 372)"></use><use xlink:href="#transformed-10502" transform="translate(236, 372)"></use><use xlink:href="#transformed-11659" transform="translate(-236, -372)"></use><use xlink:href="#transformed-11659" transform="translate(0, -372)"></use><use xlink:href="#transformed-11659" transform="translate(236, -372)"></use><use xlink:href="#transformed-11659" transform="translate(-236, 0)"></use><use xlink:href="#transformed-11659" transform="translate(0, 0)"></use><use xlink:href="#transformed-11659" transform="translate(236, 0)"></use><use xlink:href="#transformed-11659" transform="translate(-236, 372)"></use><use xlink:href="#transformed-11659" transform="translate(0, 372)"></use><use xlink:href="#transformed-11659" transform="translate(236, 372)"></use><use xlink:href="#transformed-07108" transform="translate(-236, -372)"></use><use xlink:href="#transformed-07108" transform="translate(0, -372)"></use><use xlink:href="#transformed-07108" transform="translate(236, -372)"></use><use xlink:href="#transformed-07108" transform="translate(-236, 0)"></use><use xlink:href="#transformed-07108" transform="translate(0, 0)"></use><use xlink:href="#transformed-07108" transform="translate(236, 0)"></use><use xlink:href="#transformed-07108" transform="translate(-236, 372)"></use><use xlink:href="#transformed-07108" transform="translate(0, 372)"></use><use xlink:href="#transformed-07108" transform="translate(236, 372)"></use><use xlink:href="#transformed-03610" transform="translate(-236, -372)"></use><use xlink:href="#transformed-03610" transform="translate(0, -372)"></use><use xlink:href="#transformed-03610" transform="translate(236, -372)"></use><use xlink:href="#transformed-03610" transform="translate(-236, 0)"></use><use xlink:href="#transformed-03610" transform="translate(0, 0)"></use><use xlink:href="#transformed-03610" transform="translate(236, 0)"></use><use xlink:href="#transformed-03610" transform="translate(-236, 372)"></use><use xlink:href="#transformed-03610" transform="translate(0, 372)"></use><use xlink:href="#transformed-03610" transform="translate(236, 372)"></use></svg>