<svg height="511pt" viewBox="-6 1 511 511.99999" width="511pt" xmlns="http://www.w3.org/2000/svg"><path d="m483.429688 0h-467.597657c-8.464843 0-15.332031 6.867188-15.332031 15.332031v481.335938c0 8.464843 6.867188 15.332031 15.332031 15.332031h467.597657c8.464843 0 15.332031-6.867188 15.332031-15.332031v-481.335938c0-8.464843-6.867188-15.332031-15.332031-15.332031zm-15.332032 481.335938h-436.933594v-450.671876h436.933594zm0 0"/><path d="m64.894531 381.71875h369.476563c8.472656 0 15.328125-6.867188 15.328125-15.328125v-304.234375c0-8.464844-6.855469-15.332031-15.328125-15.332031h-369.476563c-8.472656 0-15.332031 6.867187-15.332031 15.332031v304.234375c0 8.460937 6.859375 15.328125 15.332031 15.328125zm15.332031-304.230469h338.8125v273.570313h-11.4375v-54.171875c0-27.097657-14.332031-50.914063-35.804687-64.261719 8.296875-9.660156 13.316406-22.210938 13.316406-35.90625 0-30.441406-24.765625-55.195312-55.195312-55.195312-30.4375 0-55.195313 24.753906-55.195313 55.195312 0 14.511719 5.625 27.726562 14.8125 37.59375-20.035156 13.613281-33.207031 36.578125-33.207031 62.574219v54.171875h-10.855469v-94.035156c0-27.097657-14.332031-50.914063-35.804687-64.261719 8.296875-9.660157 13.316406-22.210938 13.316406-35.90625 0-30.441407-24.765625-55.195313-55.195313-55.195313-30.4375 0-55.191406 24.753906-55.191406 55.195313 0 14.503906 5.621094 27.71875 14.808594 37.582031-20.035156 13.613281-33.207031 36.59375-33.207031 62.585938v94.035156h-13.972657zm249.691407 143.757813c-13.523438 0-24.53125-11.007813-24.53125-24.527344 0-13.523438 11.007812-24.53125 24.53125-24.53125 13.523437 0 24.53125 11.007812 24.53125 24.53125 0 13.519531-11.007813 24.527344-24.53125 24.527344zm-42.929688 75.640625c0-24.796875 20.179688-44.976563 44.976563-44.976563 24.792968 0 44.972656 20.179688 44.972656 44.976563v54.171875h-89.949219zm-119.199219-115.5c-13.53125 0-24.53125-11.007813-24.53125-24.53125 0-13.523438 11-24.53125 24.53125-24.53125 13.523438 0 24.53125 11.007812 24.53125 24.53125 0 13.523437-11.007812 24.53125-24.53125 24.53125zm-42.929687 75.636719c0-24.796876 20.167969-44.972657 44.976563-44.972657 24.796874 0 44.972656 20.175781 44.972656 44.972657v94.035156h-89.949219zm0 0"/><path d="m296.691406 426.695312c8.460938 0 15.332032-6.871093 15.332032-15.332031 0-8.464843-6.871094-15.332031-15.332032-15.332031h-94.117187c-8.464844 0-15.332031 6.867188-15.332031 15.332031 0 8.460938 6.867187 15.332031 15.332031 15.332031zm0 0"/><path d="m343.667969 435.894531h-188.070313c-8.464844 0-15.332031 6.867188-15.332031 15.332031 0 8.460938 6.867187 15.328126 15.332031 15.328126h188.070313c8.460937 0 15.332031-6.867188 15.332031-15.328126 0-8.464843-6.871094-15.332031-15.332031-15.332031zm0 0"/></svg>